<mxfile host="app.diagrams.net" agent="Mozilla/5.0 (Windows NT 10.0; Win64; x64) AppleWebKit/537.36 (KHTML, like Gecko) Chrome/134.0.0.0 Safari/537.36 Edg/134.0.0.0" version="26.1.1">
  <diagram name="Page-1" id="Nod786ckjqn27iLyYaxR">
    <mxGraphModel dx="1042" dy="565" grid="1" gridSize="10" guides="1" tooltips="1" connect="1" arrows="1" fold="1" page="1" pageScale="1" pageWidth="2000" pageHeight="2000" math="0" shadow="0">
      <root>
        <mxCell id="0" />
        <mxCell id="1" parent="0" />
        <mxCell id="ML8I-i9EjZEzCUlkobjq-1" value="Data aggregator" style="html=1;dropTarget=0;whiteSpace=wrap;fillColor=#dae8fc;strokeColor=#6c8ebf;" parent="1" vertex="1">
          <mxGeometry x="920" y="220" width="180" height="90" as="geometry" />
        </mxCell>
        <mxCell id="ML8I-i9EjZEzCUlkobjq-2" value="" style="shape=module;jettyWidth=8;jettyHeight=4;" parent="ML8I-i9EjZEzCUlkobjq-1" vertex="1">
          <mxGeometry x="1" width="20" height="20" relative="1" as="geometry">
            <mxPoint x="-27" y="7" as="offset" />
          </mxGeometry>
        </mxCell>
        <mxCell id="ML8I-i9EjZEzCUlkobjq-3" value="Database" style="html=1;dropTarget=0;whiteSpace=wrap;fillColor=#dae8fc;strokeColor=#6c8ebf;" parent="1" vertex="1">
          <mxGeometry x="920" y="390" width="180" height="90" as="geometry" />
        </mxCell>
        <mxCell id="ML8I-i9EjZEzCUlkobjq-4" value="" style="shape=module;jettyWidth=8;jettyHeight=4;" parent="ML8I-i9EjZEzCUlkobjq-3" vertex="1">
          <mxGeometry x="1" width="20" height="20" relative="1" as="geometry">
            <mxPoint x="-27" y="7" as="offset" />
          </mxGeometry>
        </mxCell>
        <mxCell id="ML8I-i9EjZEzCUlkobjq-5" value="Stock comparison graphs/dashboard" style="html=1;dropTarget=0;whiteSpace=wrap;fillColor=#d5e8d4;strokeColor=#82b366;" parent="1" vertex="1">
          <mxGeometry x="1190" y="400" width="180" height="90" as="geometry" />
        </mxCell>
        <mxCell id="ML8I-i9EjZEzCUlkobjq-6" value="" style="shape=module;jettyWidth=8;jettyHeight=4;" parent="ML8I-i9EjZEzCUlkobjq-5" vertex="1">
          <mxGeometry x="1" width="20" height="20" relative="1" as="geometry">
            <mxPoint x="-27" y="7" as="offset" />
          </mxGeometry>
        </mxCell>
        <mxCell id="ML8I-i9EjZEzCUlkobjq-7" value="External API service" style="html=1;dropTarget=0;whiteSpace=wrap;fillColor=#dae8fc;strokeColor=#6c8ebf;" parent="1" vertex="1">
          <mxGeometry x="1190" y="220" width="180" height="90" as="geometry" />
        </mxCell>
        <mxCell id="ML8I-i9EjZEzCUlkobjq-8" value="" style="shape=module;jettyWidth=8;jettyHeight=4;" parent="ML8I-i9EjZEzCUlkobjq-7" vertex="1">
          <mxGeometry x="1" width="20" height="20" relative="1" as="geometry">
            <mxPoint x="-27" y="7" as="offset" />
          </mxGeometry>
        </mxCell>
        <mxCell id="ML8I-i9EjZEzCUlkobjq-9" value="" style="rounded=0;orthogonalLoop=1;jettySize=auto;html=1;endArrow=halfCircle;endFill=0;endSize=6;strokeWidth=1;sketch=0;exitX=0.5;exitY=0;exitDx=0;exitDy=0;" parent="1" source="ML8I-i9EjZEzCUlkobjq-3" target="ML8I-i9EjZEzCUlkobjq-11" edge="1">
          <mxGeometry relative="1" as="geometry">
            <mxPoint x="980" y="365" as="sourcePoint" />
          </mxGeometry>
        </mxCell>
        <mxCell id="ML8I-i9EjZEzCUlkobjq-10" value="" style="rounded=0;orthogonalLoop=1;jettySize=auto;html=1;endArrow=oval;endFill=0;sketch=0;sourcePerimeterSpacing=0;targetPerimeterSpacing=0;endSize=10;exitX=0.5;exitY=1;exitDx=0;exitDy=0;" parent="1" source="ML8I-i9EjZEzCUlkobjq-1" target="ML8I-i9EjZEzCUlkobjq-11" edge="1">
          <mxGeometry relative="1" as="geometry">
            <mxPoint x="990" y="300" as="sourcePoint" />
          </mxGeometry>
        </mxCell>
        <mxCell id="ML8I-i9EjZEzCUlkobjq-11" value="" style="ellipse;whiteSpace=wrap;html=1;align=center;aspect=fixed;fillColor=none;strokeColor=none;resizable=0;perimeter=centerPerimeter;rotatable=0;allowArrows=0;points=[];outlineConnect=1;" parent="1" vertex="1">
          <mxGeometry x="1005" y="350" width="10" height="10" as="geometry" />
        </mxCell>
        <mxCell id="ML8I-i9EjZEzCUlkobjq-12" value="" style="rounded=0;orthogonalLoop=1;jettySize=auto;html=1;endArrow=halfCircle;endFill=0;endSize=6;strokeWidth=1;sketch=0;exitX=1;exitY=0.5;exitDx=0;exitDy=0;" parent="1" source="ML8I-i9EjZEzCUlkobjq-1" target="ML8I-i9EjZEzCUlkobjq-14" edge="1">
          <mxGeometry relative="1" as="geometry">
            <mxPoint x="1140" y="265" as="sourcePoint" />
          </mxGeometry>
        </mxCell>
        <mxCell id="ML8I-i9EjZEzCUlkobjq-13" value="" style="rounded=0;orthogonalLoop=1;jettySize=auto;html=1;endArrow=oval;endFill=0;sketch=0;sourcePerimeterSpacing=0;targetPerimeterSpacing=0;endSize=10;exitX=0;exitY=0.5;exitDx=0;exitDy=0;" parent="1" source="ML8I-i9EjZEzCUlkobjq-7" target="ML8I-i9EjZEzCUlkobjq-14" edge="1">
          <mxGeometry relative="1" as="geometry">
            <mxPoint x="1150" y="230" as="sourcePoint" />
          </mxGeometry>
        </mxCell>
        <mxCell id="ML8I-i9EjZEzCUlkobjq-14" value="" style="ellipse;whiteSpace=wrap;html=1;align=center;aspect=fixed;fillColor=none;strokeColor=none;resizable=0;perimeter=centerPerimeter;rotatable=0;allowArrows=0;points=[];outlineConnect=1;" parent="1" vertex="1">
          <mxGeometry x="1140" y="260" width="10" height="10" as="geometry" />
        </mxCell>
        <mxCell id="ML8I-i9EjZEzCUlkobjq-15" value="" style="rounded=0;orthogonalLoop=1;jettySize=auto;html=1;endArrow=halfCircle;endFill=0;endSize=6;strokeWidth=1;sketch=0;exitX=0;exitY=0.5;exitDx=0;exitDy=0;" parent="1" source="ML8I-i9EjZEzCUlkobjq-5" target="ML8I-i9EjZEzCUlkobjq-17" edge="1">
          <mxGeometry relative="1" as="geometry">
            <mxPoint x="1140" y="445" as="sourcePoint" />
          </mxGeometry>
        </mxCell>
        <mxCell id="ML8I-i9EjZEzCUlkobjq-16" value="" style="rounded=0;orthogonalLoop=1;jettySize=auto;html=1;endArrow=oval;endFill=0;sketch=0;sourcePerimeterSpacing=0;targetPerimeterSpacing=0;endSize=10;exitX=0.997;exitY=0.608;exitDx=0;exitDy=0;exitPerimeter=0;" parent="1" source="ML8I-i9EjZEzCUlkobjq-3" target="ML8I-i9EjZEzCUlkobjq-17" edge="1">
          <mxGeometry relative="1" as="geometry">
            <mxPoint x="1100" y="445" as="sourcePoint" />
          </mxGeometry>
        </mxCell>
        <mxCell id="ML8I-i9EjZEzCUlkobjq-17" value="" style="ellipse;whiteSpace=wrap;html=1;align=center;aspect=fixed;fillColor=none;strokeColor=none;resizable=0;perimeter=centerPerimeter;rotatable=0;allowArrows=0;points=[];outlineConnect=1;" parent="1" vertex="1">
          <mxGeometry x="1140" y="440" width="10" height="10" as="geometry" />
        </mxCell>
        <mxCell id="ML8I-i9EjZEzCUlkobjq-18" value="IStockData" style="text;align=center;fontStyle=1;verticalAlign=middle;spacingLeft=3;spacingRight=3;strokeColor=none;rotatable=0;points=[[0,0.5],[1,0.5]];portConstraint=eastwest;html=1;" parent="1" vertex="1">
          <mxGeometry x="1015" y="342" width="80" height="26" as="geometry" />
        </mxCell>
        <mxCell id="ML8I-i9EjZEzCUlkobjq-19" value="&lt;font&gt;IData&lt;/font&gt;" style="text;align=center;fontStyle=1;verticalAlign=middle;spacingLeft=3;spacingRight=3;strokeColor=none;rotatable=0;points=[[0,0.5],[1,0.5]];portConstraint=eastwest;html=1;" parent="1" vertex="1">
          <mxGeometry x="1095" y="260" width="110" height="50" as="geometry" />
        </mxCell>
        <mxCell id="ML8I-i9EjZEzCUlkobjq-20" value="IStockGraph" style="text;align=center;fontStyle=1;verticalAlign=middle;spacingLeft=3;spacingRight=3;strokeColor=none;rotatable=0;points=[[0,0.5],[1,0.5]];portConstraint=eastwest;html=1;" parent="1" vertex="1">
          <mxGeometry x="1106" y="450" width="80" height="26" as="geometry" />
        </mxCell>
        <mxCell id="ML8I-i9EjZEzCUlkobjq-21" value="" style="rounded=0;orthogonalLoop=1;jettySize=auto;html=1;endArrow=halfCircle;endFill=0;endSize=6;strokeWidth=1;sketch=0;exitX=1;exitY=0.5;exitDx=0;exitDy=0;" parent="1" source="ML8I-i9EjZEzCUlkobjq-31" target="ML8I-i9EjZEzCUlkobjq-22" edge="1">
          <mxGeometry relative="1" as="geometry">
            <mxPoint x="1040" y="405" as="sourcePoint" />
          </mxGeometry>
        </mxCell>
        <mxCell id="ML8I-i9EjZEzCUlkobjq-29" value="" style="rounded=0;orthogonalLoop=1;jettySize=auto;html=1;endArrow=oval;endFill=0;sketch=0;sourcePerimeterSpacing=0;targetPerimeterSpacing=0;endSize=10;exitX=1;exitY=0.5;exitDx=0;exitDy=0;" parent="1" source="ML8I-i9EjZEzCUlkobjq-22" target="ML8I-i9EjZEzCUlkobjq-30" edge="1">
          <mxGeometry relative="1" as="geometry">
            <mxPoint x="1000" y="405" as="sourcePoint" />
          </mxGeometry>
        </mxCell>
        <mxCell id="ML8I-i9EjZEzCUlkobjq-30" value="" style="ellipse;whiteSpace=wrap;html=1;align=center;aspect=fixed;fillColor=none;strokeColor=none;resizable=0;perimeter=centerPerimeter;rotatable=0;allowArrows=0;points=[];outlineConnect=1;" parent="1" vertex="1">
          <mxGeometry x="880" y="430" width="10" height="10" as="geometry" />
        </mxCell>
        <mxCell id="ML8I-i9EjZEzCUlkobjq-31" value="Notification system" style="html=1;dropTarget=0;whiteSpace=wrap;fillColor=#ffe6cc;strokeColor=#d79b00;" parent="1" vertex="1">
          <mxGeometry x="660" y="390" width="180" height="90" as="geometry" />
        </mxCell>
        <mxCell id="ML8I-i9EjZEzCUlkobjq-32" value="" style="shape=module;jettyWidth=8;jettyHeight=4;" parent="ML8I-i9EjZEzCUlkobjq-31" vertex="1">
          <mxGeometry x="1" width="20" height="20" relative="1" as="geometry">
            <mxPoint x="-27" y="7" as="offset" />
          </mxGeometry>
        </mxCell>
        <mxCell id="ML8I-i9EjZEzCUlkobjq-33" value="Stock Comparison Session" style="html=1;dropTarget=0;whiteSpace=wrap;fillColor=#ffe6cc;strokeColor=#d79b00;" parent="1" vertex="1">
          <mxGeometry x="660" y="590" width="180" height="90" as="geometry" />
        </mxCell>
        <mxCell id="ML8I-i9EjZEzCUlkobjq-34" value="" style="shape=module;jettyWidth=8;jettyHeight=4;" parent="ML8I-i9EjZEzCUlkobjq-33" vertex="1">
          <mxGeometry x="1" width="20" height="20" relative="1" as="geometry">
            <mxPoint x="-27" y="7" as="offset" />
          </mxGeometry>
        </mxCell>
        <mxCell id="ML8I-i9EjZEzCUlkobjq-35" value="AI analyser" style="html=1;dropTarget=0;whiteSpace=wrap;fillColor=#d5e8d4;strokeColor=#82b366;" parent="1" vertex="1">
          <mxGeometry x="1190" y="590" width="180" height="90" as="geometry" />
        </mxCell>
        <mxCell id="ML8I-i9EjZEzCUlkobjq-36" value="" style="shape=module;jettyWidth=8;jettyHeight=4;" parent="ML8I-i9EjZEzCUlkobjq-35" vertex="1">
          <mxGeometry x="1" width="20" height="20" relative="1" as="geometry">
            <mxPoint x="-27" y="7" as="offset" />
          </mxGeometry>
        </mxCell>
        <mxCell id="ML8I-i9EjZEzCUlkobjq-37" value="Graphical component display/view" style="html=1;dropTarget=0;whiteSpace=wrap;fillColor=#d5e8d4;strokeColor=#82b366;" parent="1" vertex="1">
          <mxGeometry x="1450" y="400" width="180" height="90" as="geometry" />
        </mxCell>
        <mxCell id="ML8I-i9EjZEzCUlkobjq-38" value="" style="shape=module;jettyWidth=8;jettyHeight=4;" parent="ML8I-i9EjZEzCUlkobjq-37" vertex="1">
          <mxGeometry x="1" width="20" height="20" relative="1" as="geometry">
            <mxPoint x="-27" y="7" as="offset" />
          </mxGeometry>
        </mxCell>
        <mxCell id="ML8I-i9EjZEzCUlkobjq-39" value="" style="rounded=0;orthogonalLoop=1;jettySize=auto;html=1;endArrow=halfCircle;endFill=0;endSize=6;strokeWidth=1;sketch=0;" parent="1" target="ML8I-i9EjZEzCUlkobjq-41" edge="1">
          <mxGeometry relative="1" as="geometry">
            <mxPoint x="1280" y="490" as="sourcePoint" />
          </mxGeometry>
        </mxCell>
        <mxCell id="ML8I-i9EjZEzCUlkobjq-40" value="" style="rounded=0;orthogonalLoop=1;jettySize=auto;html=1;endArrow=oval;endFill=0;sketch=0;sourcePerimeterSpacing=0;targetPerimeterSpacing=0;endSize=10;exitX=0.5;exitY=0;exitDx=0;exitDy=0;" parent="1" source="ML8I-i9EjZEzCUlkobjq-35" target="ML8I-i9EjZEzCUlkobjq-41" edge="1">
          <mxGeometry relative="1" as="geometry">
            <mxPoint x="1280" y="495" as="sourcePoint" />
          </mxGeometry>
        </mxCell>
        <mxCell id="ML8I-i9EjZEzCUlkobjq-41" value="" style="ellipse;whiteSpace=wrap;html=1;align=center;aspect=fixed;fillColor=none;strokeColor=none;resizable=0;perimeter=centerPerimeter;rotatable=0;allowArrows=0;points=[];outlineConnect=1;" parent="1" vertex="1">
          <mxGeometry x="1275" y="540" width="10" height="10" as="geometry" />
        </mxCell>
        <mxCell id="ML8I-i9EjZEzCUlkobjq-42" value="" style="rounded=0;orthogonalLoop=1;jettySize=auto;html=1;endArrow=halfCircle;endFill=0;endSize=6;strokeWidth=1;sketch=0;exitX=0;exitY=0.5;exitDx=0;exitDy=0;" parent="1" source="ML8I-i9EjZEzCUlkobjq-37" target="ML8I-i9EjZEzCUlkobjq-44" edge="1">
          <mxGeometry relative="1" as="geometry">
            <mxPoint x="1410" y="445" as="sourcePoint" />
          </mxGeometry>
        </mxCell>
        <mxCell id="ML8I-i9EjZEzCUlkobjq-43" value="" style="rounded=0;orthogonalLoop=1;jettySize=auto;html=1;endArrow=oval;endFill=0;sketch=0;sourcePerimeterSpacing=0;targetPerimeterSpacing=0;endSize=10;" parent="1" source="ML8I-i9EjZEzCUlkobjq-5" target="ML8I-i9EjZEzCUlkobjq-44" edge="1">
          <mxGeometry relative="1" as="geometry">
            <mxPoint x="1370" y="445" as="sourcePoint" />
          </mxGeometry>
        </mxCell>
        <mxCell id="ML8I-i9EjZEzCUlkobjq-44" value="" style="ellipse;whiteSpace=wrap;html=1;align=center;aspect=fixed;fillColor=none;strokeColor=none;resizable=0;perimeter=centerPerimeter;rotatable=0;allowArrows=0;points=[];outlineConnect=1;" parent="1" vertex="1">
          <mxGeometry x="1410" y="440" width="10" height="10" as="geometry" />
        </mxCell>
        <mxCell id="ML8I-i9EjZEzCUlkobjq-45" value="" style="rounded=0;orthogonalLoop=1;jettySize=auto;html=1;endArrow=halfCircle;endFill=0;endSize=6;strokeWidth=1;sketch=0;exitX=0.5;exitY=0;exitDx=0;exitDy=0;" parent="1" source="ML8I-i9EjZEzCUlkobjq-33" target="ML8I-i9EjZEzCUlkobjq-47" edge="1">
          <mxGeometry relative="1" as="geometry">
            <mxPoint x="750" y="480" as="sourcePoint" />
          </mxGeometry>
        </mxCell>
        <mxCell id="ML8I-i9EjZEzCUlkobjq-46" value="" style="rounded=0;orthogonalLoop=1;jettySize=auto;html=1;endArrow=oval;endFill=0;sketch=0;sourcePerimeterSpacing=0;targetPerimeterSpacing=0;endSize=10;exitX=0.5;exitY=1;exitDx=0;exitDy=0;" parent="1" source="ML8I-i9EjZEzCUlkobjq-31" target="ML8I-i9EjZEzCUlkobjq-47" edge="1">
          <mxGeometry relative="1" as="geometry">
            <mxPoint x="760" y="515" as="sourcePoint" />
          </mxGeometry>
        </mxCell>
        <mxCell id="ML8I-i9EjZEzCUlkobjq-47" value="" style="ellipse;whiteSpace=wrap;html=1;align=center;aspect=fixed;fillColor=none;strokeColor=none;resizable=0;perimeter=centerPerimeter;rotatable=0;allowArrows=0;points=[];outlineConnect=1;" parent="1" vertex="1">
          <mxGeometry x="745" y="530" width="10" height="10" as="geometry" />
        </mxCell>
        <mxCell id="ML8I-i9EjZEzCUlkobjq-52" value="" style="rounded=0;orthogonalLoop=1;jettySize=auto;html=1;endArrow=halfCircle;endFill=0;endSize=6;strokeWidth=1;sketch=0;exitX=0;exitY=0.5;exitDx=0;exitDy=0;" parent="1" source="ML8I-i9EjZEzCUlkobjq-35" target="ML8I-i9EjZEzCUlkobjq-54" edge="1">
          <mxGeometry relative="1" as="geometry">
            <mxPoint x="930" y="750" as="sourcePoint" />
          </mxGeometry>
        </mxCell>
        <mxCell id="ML8I-i9EjZEzCUlkobjq-53" value="" style="rounded=0;orthogonalLoop=1;jettySize=auto;html=1;endArrow=oval;endFill=0;sketch=0;sourcePerimeterSpacing=0;targetPerimeterSpacing=0;endSize=10;exitX=1;exitY=0.5;exitDx=0;exitDy=0;" parent="1" source="ML8I-i9EjZEzCUlkobjq-33" target="ML8I-i9EjZEzCUlkobjq-54" edge="1">
          <mxGeometry relative="1" as="geometry">
            <mxPoint x="840" y="635" as="sourcePoint" />
          </mxGeometry>
        </mxCell>
        <mxCell id="ML8I-i9EjZEzCUlkobjq-54" value="" style="ellipse;whiteSpace=wrap;html=1;align=center;aspect=fixed;fillColor=none;strokeColor=none;resizable=0;perimeter=centerPerimeter;rotatable=0;allowArrows=0;points=[];outlineConnect=1;" parent="1" vertex="1">
          <mxGeometry x="1020" y="630" width="10" height="10" as="geometry" />
        </mxCell>
        <mxCell id="ML8I-i9EjZEzCUlkobjq-55" value="User" style="html=1;dropTarget=0;whiteSpace=wrap;fillColor=#ffe6cc;strokeColor=#d79b00;" parent="1" vertex="1">
          <mxGeometry x="660" y="750" width="180" height="90" as="geometry" />
        </mxCell>
        <mxCell id="ML8I-i9EjZEzCUlkobjq-56" value="" style="shape=module;jettyWidth=8;jettyHeight=4;" parent="ML8I-i9EjZEzCUlkobjq-55" vertex="1">
          <mxGeometry x="1" width="20" height="20" relative="1" as="geometry">
            <mxPoint x="-27" y="7" as="offset" />
          </mxGeometry>
        </mxCell>
        <mxCell id="ML8I-i9EjZEzCUlkobjq-57" value="" style="rounded=0;orthogonalLoop=1;jettySize=auto;html=1;endArrow=halfCircle;endFill=0;endSize=6;strokeWidth=1;sketch=0;exitX=1;exitY=0.5;exitDx=0;exitDy=0;" parent="1" source="ML8I-i9EjZEzCUlkobjq-55" target="ML8I-i9EjZEzCUlkobjq-59" edge="1">
          <mxGeometry relative="1" as="geometry">
            <mxPoint x="1600" y="565" as="sourcePoint" />
          </mxGeometry>
        </mxCell>
        <mxCell id="ML8I-i9EjZEzCUlkobjq-58" value="" style="rounded=0;orthogonalLoop=1;jettySize=auto;html=1;endArrow=oval;endFill=0;sketch=0;sourcePerimeterSpacing=0;targetPerimeterSpacing=0;endSize=10;exitX=0.5;exitY=1;exitDx=0;exitDy=0;" parent="1" source="ML8I-i9EjZEzCUlkobjq-37" target="ML8I-i9EjZEzCUlkobjq-59" edge="1">
          <mxGeometry relative="1" as="geometry">
            <mxPoint x="1560" y="565" as="sourcePoint" />
          </mxGeometry>
        </mxCell>
        <mxCell id="ML8I-i9EjZEzCUlkobjq-59" value="" style="ellipse;whiteSpace=wrap;html=1;align=center;aspect=fixed;fillColor=none;strokeColor=none;resizable=0;perimeter=centerPerimeter;rotatable=0;allowArrows=0;points=[];outlineConnect=1;" parent="1" vertex="1">
          <mxGeometry x="1535" y="790" width="10" height="10" as="geometry" />
        </mxCell>
        <mxCell id="ML8I-i9EjZEzCUlkobjq-60" value="" style="rounded=0;orthogonalLoop=1;jettySize=auto;html=1;endArrow=halfCircle;endFill=0;endSize=6;strokeWidth=1;sketch=0;exitX=0.5;exitY=1;exitDx=0;exitDy=0;" parent="1" source="ML8I-i9EjZEzCUlkobjq-33" target="ML8I-i9EjZEzCUlkobjq-62" edge="1">
          <mxGeometry relative="1" as="geometry">
            <mxPoint x="840" y="715" as="sourcePoint" />
          </mxGeometry>
        </mxCell>
        <mxCell id="ML8I-i9EjZEzCUlkobjq-61" value="" style="rounded=0;orthogonalLoop=1;jettySize=auto;html=1;endArrow=oval;endFill=0;sketch=0;sourcePerimeterSpacing=0;targetPerimeterSpacing=0;endSize=10;exitX=0.5;exitY=0;exitDx=0;exitDy=0;" parent="1" source="ML8I-i9EjZEzCUlkobjq-55" target="ML8I-i9EjZEzCUlkobjq-62" edge="1">
          <mxGeometry relative="1" as="geometry">
            <mxPoint x="800" y="715" as="sourcePoint" />
          </mxGeometry>
        </mxCell>
        <mxCell id="ML8I-i9EjZEzCUlkobjq-62" value="" style="ellipse;whiteSpace=wrap;html=1;align=center;aspect=fixed;fillColor=none;strokeColor=none;resizable=0;perimeter=centerPerimeter;rotatable=0;allowArrows=0;points=[];outlineConnect=1;" parent="1" vertex="1">
          <mxGeometry x="745" y="710" width="10" height="10" as="geometry" />
        </mxCell>
        <mxCell id="ML8I-i9EjZEzCUlkobjq-63" value="Portifolio" style="html=1;dropTarget=0;whiteSpace=wrap;fillColor=#ffe6cc;strokeColor=#d79b00;" parent="1" vertex="1">
          <mxGeometry x="370" y="750" width="180" height="90" as="geometry" />
        </mxCell>
        <mxCell id="ML8I-i9EjZEzCUlkobjq-64" value="" style="shape=module;jettyWidth=8;jettyHeight=4;" parent="ML8I-i9EjZEzCUlkobjq-63" vertex="1">
          <mxGeometry x="1" width="20" height="20" relative="1" as="geometry">
            <mxPoint x="-27" y="7" as="offset" />
          </mxGeometry>
        </mxCell>
        <mxCell id="ML8I-i9EjZEzCUlkobjq-65" value="" style="rounded=0;orthogonalLoop=1;jettySize=auto;html=1;endArrow=halfCircle;endFill=0;endSize=6;strokeWidth=1;sketch=0;exitX=0;exitY=0.5;exitDx=0;exitDy=0;" parent="1" source="ML8I-i9EjZEzCUlkobjq-55" target="ML8I-i9EjZEzCUlkobjq-67" edge="1">
          <mxGeometry relative="1" as="geometry">
            <mxPoint x="630" y="805" as="sourcePoint" />
          </mxGeometry>
        </mxCell>
        <mxCell id="ML8I-i9EjZEzCUlkobjq-66" value="" style="rounded=0;orthogonalLoop=1;jettySize=auto;html=1;endArrow=oval;endFill=0;sketch=0;sourcePerimeterSpacing=0;targetPerimeterSpacing=0;endSize=10;exitX=1;exitY=0.5;exitDx=0;exitDy=0;" parent="1" source="ML8I-i9EjZEzCUlkobjq-63" target="ML8I-i9EjZEzCUlkobjq-67" edge="1">
          <mxGeometry relative="1" as="geometry">
            <mxPoint x="590" y="805" as="sourcePoint" />
          </mxGeometry>
        </mxCell>
        <mxCell id="ML8I-i9EjZEzCUlkobjq-67" value="" style="ellipse;whiteSpace=wrap;html=1;align=center;aspect=fixed;fillColor=none;strokeColor=none;resizable=0;perimeter=centerPerimeter;rotatable=0;allowArrows=0;points=[];outlineConnect=1;" parent="1" vertex="1">
          <mxGeometry x="600" y="790" width="10" height="10" as="geometry" />
        </mxCell>
        <mxCell id="ML8I-i9EjZEzCUlkobjq-68" value="" style="rounded=0;orthogonalLoop=1;jettySize=auto;html=1;endArrow=halfCircle;endFill=0;endSize=6;strokeWidth=1;sketch=0;exitX=0.5;exitY=1;exitDx=0;exitDy=0;" parent="1" source="ML8I-i9EjZEzCUlkobjq-55" target="ML8I-i9EjZEzCUlkobjq-70" edge="1">
          <mxGeometry relative="1" as="geometry">
            <mxPoint x="785" y="965" as="sourcePoint" />
          </mxGeometry>
        </mxCell>
        <mxCell id="ML8I-i9EjZEzCUlkobjq-69" value="" style="rounded=0;orthogonalLoop=1;jettySize=auto;html=1;endArrow=oval;endFill=0;sketch=0;sourcePerimeterSpacing=0;targetPerimeterSpacing=0;endSize=10;exitX=0.5;exitY=0;exitDx=0;exitDy=0;" parent="1" source="ML8I-i9EjZEzCUlkobjq-71" target="ML8I-i9EjZEzCUlkobjq-70" edge="1">
          <mxGeometry relative="1" as="geometry">
            <mxPoint x="750" y="960" as="sourcePoint" />
          </mxGeometry>
        </mxCell>
        <mxCell id="ML8I-i9EjZEzCUlkobjq-70" value="" style="ellipse;whiteSpace=wrap;html=1;align=center;aspect=fixed;fillColor=none;strokeColor=none;resizable=0;perimeter=centerPerimeter;rotatable=0;allowArrows=0;points=[];outlineConnect=1;" parent="1" vertex="1">
          <mxGeometry x="745" y="900" width="10" height="10" as="geometry" />
        </mxCell>
        <mxCell id="ML8I-i9EjZEzCUlkobjq-71" value="Login/Logout" style="html=1;dropTarget=0;whiteSpace=wrap;fillColor=#ffe6cc;strokeColor=#d79b00;" parent="1" vertex="1">
          <mxGeometry x="660" y="970" width="180" height="90" as="geometry" />
        </mxCell>
        <mxCell id="ML8I-i9EjZEzCUlkobjq-72" value="" style="shape=module;jettyWidth=8;jettyHeight=4;" parent="ML8I-i9EjZEzCUlkobjq-71" vertex="1">
          <mxGeometry x="1" width="20" height="20" relative="1" as="geometry">
            <mxPoint x="-27" y="7" as="offset" />
          </mxGeometry>
        </mxCell>
        <mxCell id="ML8I-i9EjZEzCUlkobjq-73" value="" style="rounded=0;orthogonalLoop=1;jettySize=auto;html=1;endArrow=oval;endFill=0;sketch=0;sourcePerimeterSpacing=0;targetPerimeterSpacing=0;endSize=10;exitX=0;exitY=0.5;exitDx=0;exitDy=0;" parent="1" source="ML8I-i9EjZEzCUlkobjq-3" target="ML8I-i9EjZEzCUlkobjq-22" edge="1">
          <mxGeometry relative="1" as="geometry">
            <mxPoint x="840" y="435" as="sourcePoint" />
            <mxPoint x="885" y="435" as="targetPoint" />
          </mxGeometry>
        </mxCell>
        <mxCell id="ML8I-i9EjZEzCUlkobjq-22" value="" style="ellipse;whiteSpace=wrap;html=1;align=center;aspect=fixed;fillColor=none;strokeColor=none;resizable=0;perimeter=centerPerimeter;rotatable=0;allowArrows=0;points=[];outlineConnect=1;" parent="1" vertex="1">
          <mxGeometry x="880" y="430" width="10" height="10" as="geometry" />
        </mxCell>
        <mxCell id="ML8I-i9EjZEzCUlkobjq-74" value="IAI" style="text;align=center;fontStyle=1;verticalAlign=middle;spacingLeft=3;spacingRight=3;strokeColor=none;rotatable=0;points=[[0,0.5],[1,0.5]];portConstraint=eastwest;html=1;" parent="1" vertex="1">
          <mxGeometry x="1285" y="532" width="35" height="26" as="geometry" />
        </mxCell>
        <mxCell id="ML8I-i9EjZEzCUlkobjq-75" value="&lt;font style=&quot;font-size: 11px;&quot;&gt;IStockDisplay&lt;/font&gt;" style="text;align=center;fontStyle=1;verticalAlign=middle;spacingLeft=3;spacingRight=3;strokeColor=none;rotatable=0;points=[[0,0.5],[1,0.5]];portConstraint=eastwest;html=1;" parent="1" vertex="1">
          <mxGeometry x="1371" y="450" width="80" height="26" as="geometry" />
        </mxCell>
        <mxCell id="ML8I-i9EjZEzCUlkobjq-76" value="IStockViewer" style="text;align=center;fontStyle=1;verticalAlign=middle;spacingLeft=3;spacingRight=3;strokeColor=none;rotatable=0;points=[[0,0.5],[1,0.5]];portConstraint=eastwest;html=1;" parent="1" vertex="1">
          <mxGeometry x="1450" y="800" width="80" height="26" as="geometry" />
        </mxCell>
        <mxCell id="ML8I-i9EjZEzCUlkobjq-77" value="ILogin" style="text;align=center;fontStyle=1;verticalAlign=middle;spacingLeft=3;spacingRight=3;strokeColor=none;rotatable=0;points=[[0,0.5],[1,0.5]];portConstraint=eastwest;html=1;" parent="1" vertex="1">
          <mxGeometry x="745" y="892" width="80" height="26" as="geometry" />
        </mxCell>
        <mxCell id="ML8I-i9EjZEzCUlkobjq-78" value="&lt;span style=&quot;white-space: pre;&quot;&gt;&#x9;&lt;/span&gt;IPortifolio" style="text;align=center;fontStyle=1;verticalAlign=middle;spacingLeft=3;spacingRight=3;strokeColor=none;rotatable=0;points=[[0,0.5],[1,0.5]];portConstraint=eastwest;html=1;" parent="1" vertex="1">
          <mxGeometry x="550" y="800" width="80" height="26" as="geometry" />
        </mxCell>
        <mxCell id="ML8I-i9EjZEzCUlkobjq-80" value="IStockComparison" style="text;align=center;fontStyle=1;verticalAlign=middle;spacingLeft=3;spacingRight=3;strokeColor=none;rotatable=0;points=[[0,0.5],[1,0.5]];portConstraint=eastwest;html=1;" parent="1" vertex="1">
          <mxGeometry x="985" y="640" width="80" height="26" as="geometry" />
        </mxCell>
        <mxCell id="ML8I-i9EjZEzCUlkobjq-81" value="IUserSession" style="text;align=center;fontStyle=1;verticalAlign=middle;spacingLeft=3;spacingRight=3;strokeColor=none;rotatable=0;points=[[0,0.5],[1,0.5]];portConstraint=eastwest;html=1;" parent="1" vertex="1">
          <mxGeometry x="761" y="702" width="80" height="26" as="geometry" />
        </mxCell>
        <mxCell id="ML8I-i9EjZEzCUlkobjq-82" value="INotifcation" style="text;align=center;fontStyle=1;verticalAlign=middle;spacingLeft=3;spacingRight=3;strokeColor=none;rotatable=0;points=[[0,0.5],[1,0.5]];portConstraint=eastwest;html=1;" parent="1" vertex="1">
          <mxGeometry x="761" y="524" width="80" height="26" as="geometry" />
        </mxCell>
        <mxCell id="ewCu36rwplhdTMLAE7Wd-1" value="iDatabase" style="text;align=center;fontStyle=1;verticalAlign=middle;spacingLeft=3;spacingRight=3;strokeColor=none;rotatable=0;points=[[0,0.5],[1,0.5]];portConstraint=eastwest;html=1;" parent="1" vertex="1">
          <mxGeometry x="840" y="400" width="80" height="26" as="geometry" />
        </mxCell>
      </root>
    </mxGraphModel>
  </diagram>
</mxfile>
